#define heart_s_width 16
#define heart_s_height 15
static unsigned char heart_s_bits[] = {
  0x38, 0x1C, 0x6C, 0x36, 0x82, 0x41, 0x03, 0xC0, 0x01, 0x80, 0x01, 0x80, 
  0x02, 0x40, 0x02, 0x40, 0x04, 0x20, 0x08, 0x10, 0x10, 0x08, 0x20, 0x04, 
  0x40, 0x02, 0x80, 0x01, 0x00, 0x00, };
